<svg xmlns="http://www.w3.org/2000/svg" xmlns:xlink="http://www.w3.org/1999/xlink" width="40" viewBox="0 0 30 30.000001" height="40" preserveAspectRatio="xMidYMid meet"><defs><clipPath id="id1"><path d="M 0.484375 0 L 29.515625 0 L 29.515625 29.03125 L 0.484375 29.03125 Z M 0.484375 0 " clip-rule="nonzero"></path></clipPath><clipPath id="id2"><path d="M 4.113281 0 L 25.886719 0 L 25.886719 29.03125 L 4.113281 29.03125 Z M 4.113281 0 " clip-rule="nonzero"></path></clipPath></defs><g clip-path="url(#id1)"><path fill="rgb(100%, 100%, 100%)" d="M 0.484375 0 L 29.515625 0 L 29.515625 36.289062 L 0.484375 36.289062 Z M 0.484375 0 " fill-opacity="1" fill-rule="nonzero"></path><path fill="rgb(100%, 100%, 100%)" d="M 0.484375 0 L 29.515625 0 L 29.515625 29.03125 L 0.484375 29.03125 Z M 0.484375 0 " fill-opacity="1" fill-rule="nonzero"></path><path fill="rgb(100%, 100%, 100%)" d="M 0.484375 0 L 29.515625 0 L 29.515625 29.03125 L 0.484375 29.03125 Z M 0.484375 0 " fill-opacity="1" fill-rule="nonzero"></path><path fill="rgb(100%, 100%, 100%)" d="M 0.484375 0 L 29.515625 0 L 29.515625 29.03125 L 0.484375 29.03125 Z M 0.484375 0 " fill-opacity="1" fill-rule="nonzero"></path></g><g clip-path="url(#id2)"><path fill="rgb(9.408569%, 68.629456%, 67.449951%)" d="M 25.886719 9.535156 C 25.886719 8.539062 25.074219 7.726562 24.078125 7.726562 L 24.078125 1.386719 C 24.078125 0.640625 23.46875 0.03125 22.71875 0.03125 L 11.855469 0.03125 C 11.105469 0.03125 10.496094 0.640625 10.496094 1.386719 L 10.496094 9.132812 C 9.921875 8.546875 9.117188 8.179688 8.230469 8.179688 C 7.980469 8.179688 7.78125 8.382812 7.78125 8.632812 L 7.78125 22.796875 L 7.476562 22.691406 C 7.457031 22.683594 7.4375 22.6875 7.417969 22.683594 C 7.386719 22.675781 7.355469 22.667969 7.324219 22.667969 C 7.296875 22.667969 7.269531 22.675781 7.242188 22.679688 C 7.214844 22.6875 7.183594 22.691406 7.15625 22.703125 C 7.132812 22.714844 7.109375 22.726562 7.082031 22.746094 C 7.058594 22.761719 7.035156 22.773438 7.015625 22.796875 C 6.992188 22.816406 6.976562 22.839844 6.960938 22.867188 C 6.949219 22.882812 6.933594 22.894531 6.921875 22.914062 L 4.207031 28.347656 C 4.09375 28.570312 4.183594 28.84375 4.40625 28.953125 C 4.472656 28.988281 4.542969 29.003906 4.609375 29.003906 C 4.777344 29.003906 4.9375 28.910156 5.015625 28.75 L 7.554688 23.675781 L 16.671875 26.847656 C 16.671875 26.847656 16.675781 26.847656 16.675781 26.847656 L 17.105469 26.996094 L 16.429688 28.347656 C 16.316406 28.570312 16.40625 28.84375 16.632812 28.953125 C 16.695312 28.988281 16.765625 29.003906 16.832031 29.003906 C 17 29.003906 17.160156 28.910156 17.238281 28.75 L 18.144531 26.941406 C 18.148438 26.933594 18.148438 26.925781 18.152344 26.917969 C 18.15625 26.90625 18.164062 26.898438 18.167969 26.886719 C 18.171875 26.867188 18.171875 26.847656 18.175781 26.828125 C 18.179688 26.796875 18.1875 26.769531 18.1875 26.738281 C 18.1875 26.707031 18.179688 26.679688 18.175781 26.652344 C 18.171875 26.625 18.164062 26.597656 18.15625 26.570312 C 18.144531 26.542969 18.128906 26.519531 18.113281 26.496094 C 18.097656 26.46875 18.082031 26.449219 18.0625 26.425781 C 18.039062 26.40625 18.015625 26.390625 17.992188 26.371094 C 17.972656 26.359375 17.960938 26.34375 17.941406 26.332031 C 17.933594 26.328125 17.921875 26.328125 17.914062 26.324219 C 17.902344 26.320312 17.898438 26.3125 17.886719 26.3125 L 17.628906 26.21875 L 22.464844 20.855469 L 22.71875 20.855469 C 23.46875 20.855469 24.078125 20.246094 24.078125 19.496094 C 25.074219 19.496094 25.886719 18.683594 25.886719 17.683594 C 25.886719 17.140625 25.640625 16.660156 25.261719 16.328125 C 25.640625 15.996094 25.886719 15.511719 25.886719 14.96875 C 25.886719 14.425781 25.640625 13.941406 25.261719 13.609375 C 25.640625 13.277344 25.886719 12.796875 25.886719 12.253906 C 25.886719 11.710938 25.640625 11.226562 25.261719 10.894531 C 25.640625 10.5625 25.886719 10.078125 25.886719 9.535156 Z M 16.699219 25.898438 L 8.683594 23.109375 L 8.683594 9.128906 C 9.714844 9.339844 10.496094 10.253906 10.496094 11.347656 L 10.496094 19.496094 C 10.496094 20.246094 11.105469 20.855469 11.855469 20.855469 L 21.246094 20.855469 Z M 22.71875 19.949219 L 11.855469 19.949219 C 11.605469 19.949219 11.402344 19.746094 11.402344 19.496094 L 11.402344 1.386719 C 11.402344 1.136719 11.605469 0.9375 11.855469 0.9375 L 22.71875 0.9375 C 22.96875 0.9375 23.171875 1.136719 23.171875 1.386719 L 23.171875 7.789062 C 22.390625 7.992188 21.8125 8.695312 21.8125 9.535156 C 21.8125 10.082031 22.058594 10.5625 22.4375 10.894531 C 22.058594 11.226562 21.8125 11.710938 21.8125 12.253906 C 21.8125 12.796875 22.058594 13.28125 22.4375 13.609375 C 22.058594 13.941406 21.8125 14.425781 21.8125 14.96875 C 21.8125 15.511719 22.058594 15.996094 22.4375 16.328125 C 22.058594 16.660156 21.8125 17.140625 21.8125 17.683594 C 21.8125 18.527344 22.390625 19.230469 23.171875 19.429688 L 23.171875 19.496094 C 23.171875 19.746094 22.96875 19.949219 22.71875 19.949219 Z M 24.078125 18.589844 L 23.625 18.589844 C 23.125 18.589844 22.71875 18.183594 22.71875 17.683594 C 22.71875 17.1875 23.125 16.78125 23.621094 16.78125 C 23.621094 16.78125 23.621094 16.78125 23.625 16.78125 L 24.078125 16.78125 C 24.574219 16.78125 24.980469 17.1875 24.980469 17.683594 C 24.980469 18.183594 24.574219 18.589844 24.078125 18.589844 Z M 24.980469 14.96875 C 24.980469 15.46875 24.574219 15.875 24.078125 15.875 C 24.074219 15.875 24.074219 15.875 24.074219 15.875 L 23.625 15.875 C 23.621094 15.875 23.621094 15.875 23.621094 15.875 C 23.125 15.875 22.71875 15.46875 22.71875 14.96875 C 22.71875 14.46875 23.125 14.0625 23.625 14.0625 C 23.625 14.0625 23.625 14.0625 23.628906 14.0625 L 24.078125 14.0625 C 24.574219 14.0625 24.980469 14.46875 24.980469 14.96875 Z M 23.625 13.15625 C 23.621094 13.15625 23.621094 13.15625 23.621094 13.15625 C 23.125 13.15625 22.71875 12.75 22.71875 12.253906 C 22.71875 11.753906 23.125 11.347656 23.625 11.347656 L 24.078125 11.347656 C 24.578125 11.347656 24.980469 11.753906 24.980469 12.253906 C 24.980469 12.75 24.574219 13.15625 24.078125 13.15625 Z M 24.078125 10.441406 C 24.074219 10.441406 24.074219 10.441406 24.070312 10.441406 L 23.625 10.441406 C 23.125 10.441406 22.71875 10.035156 22.71875 9.535156 C 22.71875 9.039062 23.125 8.632812 23.625 8.632812 L 24.078125 8.632812 C 24.574219 8.632812 24.980469 9.039062 24.980469 9.535156 C 24.980469 10.035156 24.578125 10.441406 24.078125 10.441406 Z M 24.078125 10.441406 " fill-opacity="1" fill-rule="nonzero"></path></g><path fill="rgb(9.408569%, 68.629456%, 67.449951%)" d="M 8.242188 25.832031 C 7.992188 25.832031 7.792969 26.035156 7.792969 26.285156 C 7.792969 26.535156 7.996094 26.738281 8.246094 26.738281 C 8.496094 26.738281 8.699219 26.535156 8.699219 26.285156 C 8.699219 26.035156 8.496094 25.832031 8.246094 25.832031 Z M 8.242188 25.832031 " fill-opacity="1" fill-rule="nonzero"></path><path fill="rgb(9.408569%, 68.629456%, 67.449951%)" d="M 17.285156 16.78125 C 16.539062 16.78125 15.929688 17.390625 15.929688 18.136719 C 15.929688 18.886719 16.539062 19.496094 17.285156 19.496094 C 18.035156 19.496094 18.644531 18.886719 18.644531 18.136719 C 18.644531 17.390625 18.035156 16.78125 17.285156 16.78125 Z M 17.285156 18.589844 C 17.035156 18.589844 16.832031 18.386719 16.832031 18.136719 C 16.832031 17.886719 17.035156 17.683594 17.285156 17.683594 C 17.535156 17.683594 17.738281 17.886719 17.738281 18.136719 C 17.738281 18.386719 17.535156 18.589844 17.285156 18.589844 Z M 17.285156 18.589844 " fill-opacity="1" fill-rule="nonzero"></path><path fill="rgb(9.408569%, 68.629456%, 67.449951%)" d="M 15.941406 2.746094 C 16.191406 2.746094 16.394531 2.542969 16.394531 2.292969 C 16.394531 2.042969 16.191406 1.839844 15.941406 1.839844 L 15.9375 1.839844 C 15.6875 1.839844 15.488281 2.042969 15.488281 2.292969 C 15.488281 2.542969 15.691406 2.746094 15.941406 2.746094 Z M 15.941406 2.746094 " fill-opacity="1" fill-rule="nonzero"></path><path fill="rgb(9.408569%, 68.629456%, 67.449951%)" d="M 17.285156 2.746094 L 18.644531 2.746094 C 18.894531 2.746094 19.097656 2.542969 19.097656 2.292969 C 19.097656 2.042969 18.894531 1.839844 18.644531 1.839844 L 17.285156 1.839844 C 17.035156 1.839844 16.832031 2.042969 16.832031 2.292969 C 16.832031 2.542969 17.035156 2.746094 17.285156 2.746094 Z M 17.285156 2.746094 " fill-opacity="1" fill-rule="nonzero"></path><path fill="rgb(9.408569%, 68.629456%, 67.449951%)" d="M 20.003906 6.371094 L 15.246094 6.371094 C 14.621094 6.371094 14.113281 6.878906 14.113281 7.503906 L 14.113281 12.941406 C 14.113281 13.566406 14.621094 14.074219 15.246094 14.074219 L 20.003906 14.074219 C 20.253906 14.074219 20.457031 13.871094 20.457031 13.621094 C 20.457031 13.371094 20.253906 13.167969 20.003906 13.167969 L 20.003906 12.714844 C 20.253906 12.714844 20.457031 12.511719 20.457031 12.261719 L 20.457031 6.824219 C 20.457031 6.574219 20.253906 6.371094 20.003906 6.371094 Z M 15.246094 11.808594 C 15.167969 11.808594 15.09375 11.816406 15.019531 11.832031 L 15.019531 7.503906 C 15.019531 7.378906 15.121094 7.277344 15.246094 7.277344 L 19.550781 7.277344 L 19.550781 11.808594 Z M 19.097656 13.167969 L 15.246094 13.167969 C 15.121094 13.167969 15.019531 13.066406 15.019531 12.941406 C 15.019531 12.816406 15.121094 12.714844 15.246094 12.714844 L 19.097656 12.714844 Z M 19.097656 13.167969 " fill-opacity="1" fill-rule="nonzero"></path></svg>