<svg xmlns="http://www.w3.org/2000/svg" xmlns:xlink="http://www.w3.org/1999/xlink" width="40" viewBox="0 0 30 30.000001" height="40" preserveAspectRatio="xMidYMid meet"><defs><clipPath id="id1"><path d="M 0.484375 0 L 29.515625 0 L 29.515625 29.03125 L 0.484375 29.03125 Z M 0.484375 0 " clip-rule="nonzero"></path></clipPath><clipPath id="id2"><path d="M 3.386719 2.902344 L 26.613281 2.902344 L 26.613281 26.128906 L 3.386719 26.128906 Z M 3.386719 2.902344 " clip-rule="nonzero"></path></clipPath></defs><g clip-path="url(#id1)"><path fill="rgb(100%, 100%, 100%)" d="M 0.484375 0 L 29.515625 0 L 29.515625 36.289062 L 0.484375 36.289062 Z M 0.484375 0 " fill-opacity="1" fill-rule="nonzero"></path><path fill="rgb(100%, 100%, 100%)" d="M 0.484375 0 L 29.515625 0 L 29.515625 29.03125 L 0.484375 29.03125 Z M 0.484375 0 " fill-opacity="1" fill-rule="nonzero"></path><path fill="rgb(100%, 100%, 100%)" d="M 0.484375 0 L 29.515625 0 L 29.515625 29.03125 L 0.484375 29.03125 Z M 0.484375 0 " fill-opacity="1" fill-rule="nonzero"></path><path fill="rgb(100%, 100%, 100%)" d="M 0.484375 0 L 29.515625 0 L 29.515625 29.03125 L 0.484375 29.03125 Z M 0.484375 0 " fill-opacity="1" fill-rule="nonzero"></path></g><g clip-path="url(#id2)"><path fill="rgb(9.408569%, 68.629456%, 67.449951%)" d="M 23.921875 2.941406 C 23.878906 2.9375 23.832031 2.949219 23.789062 2.972656 L 23.121094 3.359375 L 22.175781 3.910156 C 22.0625 3.972656 22.023438 4.117188 22.082031 4.230469 C 22.25 4.550781 22.140625 4.9375 21.835938 5.113281 L 21.835938 5.117188 C 21.734375 5.175781 21.617188 5.203125 21.496094 5.199219 C 21.375 5.195312 21.269531 5.285156 21.25 5.40625 C 21.203125 5.707031 21.027344 5.96875 20.765625 6.117188 C 20.304688 6.382812 19.714844 6.238281 19.417969 5.773438 C 19.347656 5.664062 19.203125 5.628906 19.09375 5.695312 L 17.0625 6.867188 L 16.316406 7.300781 C 16.199219 7.367188 16.160156 7.515625 16.226562 7.628906 C 17.523438 9.882812 20.347656 10.699219 22.53125 9.4375 C 24.710938 8.175781 25.417969 5.316406 24.121094 3.0625 C 24.078125 2.992188 24.003906 2.945312 23.921875 2.941406 Z M 8.617188 3.21875 C 8.433594 3.226562 8.324219 3.425781 8.417969 3.582031 L 9.152344 4.847656 C 8.734375 4.832031 8.320312 4.972656 8.011719 5.28125 C 7.4375 5.847656 7.414062 6.761719 7.941406 7.355469 C 7.90625 7.386719 7.863281 7.40625 7.828125 7.4375 C 7.230469 8.03125 7.226562 9 7.820312 9.589844 C 7.980469 9.75 8.175781 9.851562 8.386719 9.925781 C 8.160156 10.46875 8.265625 11.105469 8.683594 11.542969 C 8.691406 11.554688 8.699219 11.5625 8.710938 11.574219 C 9.140625 12.003906 9.78125 12.105469 10.339844 11.886719 C 10.394531 11.964844 10.4375 12.046875 10.503906 12.113281 C 10.960938 12.566406 11.648438 12.675781 12.222656 12.410156 C 12.257812 12.457031 12.289062 12.507812 12.328125 12.550781 C 12.328125 12.550781 12.328125 12.550781 12.332031 12.550781 C 12.925781 13.144531 13.894531 13.136719 14.496094 12.542969 C 14.839844 12.199219 14.988281 11.714844 14.917969 11.238281 C 15 11.1875 15.085938 11.136719 15.15625 11.066406 C 15.695312 10.53125 15.746094 9.695312 15.316406 9.101562 C 15.386719 9.054688 15.449219 9.003906 15.507812 8.941406 C 15.511719 8.941406 15.511719 8.941406 15.511719 8.941406 C 16.109375 8.351562 16.113281 7.382812 15.519531 6.789062 C 15.222656 6.496094 14.824219 6.34375 14.421875 6.347656 C 14.503906 5.871094 14.363281 5.371094 14.007812 5.015625 C 13.570312 4.585938 12.921875 4.464844 12.367188 4.6875 C 12.289062 4.496094 12.191406 4.3125 12.042969 4.167969 C 11.746094 3.871094 11.355469 3.726562 10.960938 3.726562 C 10.570312 3.730469 10.179688 3.878906 9.878906 4.175781 C 9.75 4.300781 9.648438 4.449219 9.574219 4.613281 L 8.835938 3.339844 C 8.792969 3.261719 8.707031 3.214844 8.617188 3.21875 Z M 15.988281 3.484375 C 15.328125 3.484375 14.785156 4.027344 14.785156 4.691406 C 14.785156 5.355469 15.328125 5.898438 15.988281 5.898438 C 16.652344 5.898438 17.195312 5.355469 17.195312 4.691406 C 17.195312 4.027344 16.652344 3.484375 15.988281 3.484375 Z M 23.804688 3.523438 C 24.8125 5.519531 24.167969 7.933594 22.289062 9.019531 C 20.410156 10.109375 18.003906 9.460938 16.785156 7.585938 L 17.101562 7.402344 C 17.738281 8.359375 18.730469 8.949219 19.789062 9.089844 C 20 9.117188 20.210938 9.128906 20.421875 9.121094 C 20.445312 9.121094 20.46875 9.121094 20.492188 9.121094 C 20.5 9.121094 20.511719 9.117188 20.519531 9.117188 C 20.53125 9.117188 20.539062 9.117188 20.550781 9.117188 C 20.988281 9.085938 21.421875 8.976562 21.835938 8.785156 C 21.839844 8.78125 21.84375 8.78125 21.847656 8.777344 C 21.867188 8.769531 21.886719 8.757812 21.90625 8.75 C 21.914062 8.75 21.917969 8.746094 21.921875 8.742188 C 21.941406 8.730469 21.960938 8.722656 21.980469 8.710938 C 21.984375 8.710938 21.988281 8.707031 21.992188 8.707031 C 22.035156 8.683594 22.078125 8.660156 22.121094 8.636719 C 22.644531 8.332031 23.0625 7.921875 23.367188 7.445312 C 23.371094 7.433594 23.378906 7.425781 23.382812 7.417969 C 23.386719 7.40625 23.394531 7.398438 23.402344 7.390625 C 23.507812 7.214844 23.601562 7.03125 23.683594 6.839844 C 24.089844 5.847656 24.078125 4.691406 23.566406 3.660156 Z M 23.140625 3.90625 C 23.578125 4.800781 23.585938 5.800781 23.238281 6.65625 C 23.007812 7.210938 22.632812 7.703125 22.121094 8.0625 C 22.117188 8.066406 22.109375 8.070312 22.105469 8.074219 C 22.09375 8.082031 22.082031 8.089844 22.066406 8.101562 C 22.058594 8.105469 22.050781 8.113281 22.042969 8.117188 C 22.03125 8.121094 22.019531 8.128906 22.011719 8.136719 C 21.996094 8.148438 21.980469 8.15625 21.96875 8.164062 C 21.960938 8.167969 21.953125 8.175781 21.945312 8.179688 C 21.925781 8.191406 21.902344 8.203125 21.878906 8.21875 C 21.855469 8.230469 21.835938 8.242188 21.8125 8.253906 C 21.804688 8.257812 21.796875 8.265625 21.789062 8.269531 C 21.773438 8.273438 21.761719 8.28125 21.746094 8.289062 C 21.734375 8.296875 21.726562 8.300781 21.714844 8.308594 C 21.703125 8.3125 21.691406 8.316406 21.683594 8.320312 C 21.667969 8.328125 21.65625 8.335938 21.644531 8.339844 C 21.636719 8.34375 21.628906 8.347656 21.621094 8.351562 C 21.054688 8.613281 20.445312 8.691406 19.855469 8.613281 C 18.941406 8.492188 18.082031 7.984375 17.527344 7.15625 L 19.152344 6.214844 C 19.617188 6.742188 20.390625 6.890625 21.007812 6.535156 C 21.007812 6.535156 21.007812 6.535156 21.011719 6.535156 C 21.339844 6.34375 21.574219 6.027344 21.675781 5.660156 C 21.816406 5.640625 21.953125 5.605469 22.078125 5.53125 C 22.539062 5.265625 22.738281 4.71875 22.59375 4.222656 Z M 15.988281 3.96875 C 16.390625 3.96875 16.714844 4.289062 16.714844 4.691406 C 16.714844 5.09375 16.390625 5.414062 15.988281 5.414062 C 15.585938 5.414062 15.265625 5.09375 15.265625 4.691406 C 15.265625 4.289062 15.585938 3.96875 15.988281 3.96875 Z M 10.964844 4.210938 C 11.230469 4.207031 11.5 4.308594 11.703125 4.511719 C 11.855469 4.660156 11.953125 4.855469 11.988281 5.066406 C 12.019531 5.234375 12.214844 5.320312 12.359375 5.226562 C 12.777344 4.960938 13.320312 5.015625 13.667969 5.359375 C 13.980469 5.667969 14.058594 6.140625 13.863281 6.539062 C 13.773438 6.726562 13.949219 6.933594 14.148438 6.875 C 14.515625 6.769531 14.910156 6.867188 15.179688 7.132812 C 15.585938 7.539062 15.585938 8.191406 15.171875 8.601562 C 15.078125 8.691406 14.96875 8.765625 14.847656 8.820312 C 14.683594 8.890625 14.652344 9.105469 14.785156 9.222656 C 14.800781 9.234375 14.8125 9.25 14.824219 9.257812 C 15.234375 9.664062 15.230469 10.316406 14.816406 10.726562 C 14.738281 10.804688 14.648438 10.867188 14.550781 10.917969 C 14.449219 10.96875 14.398438 11.085938 14.429688 11.195312 C 14.527344 11.554688 14.421875 11.9375 14.15625 12.203125 C 13.742188 12.613281 13.078125 12.613281 12.671875 12.210938 C 12.605469 12.144531 12.546875 12.066406 12.5 11.988281 C 12.433594 11.863281 12.273438 11.824219 12.160156 11.902344 C 11.738281 12.175781 11.191406 12.121094 10.84375 11.773438 C 10.761719 11.695312 10.695312 11.597656 10.648438 11.496094 C 10.585938 11.371094 10.433594 11.324219 10.308594 11.394531 C 9.898438 11.628906 9.382812 11.5625 9.050781 11.234375 C 8.695312 10.882812 8.644531 10.332031 8.929688 9.917969 C 9.035156 9.769531 8.941406 9.5625 8.761719 9.542969 C 8.535156 9.511719 8.320312 9.410156 8.160156 9.25 C 7.753906 8.84375 7.753906 8.191406 8.167969 7.78125 C 8.242188 7.707031 8.332031 7.644531 8.425781 7.59375 C 8.582031 7.511719 8.601562 7.292969 8.457031 7.1875 C 8.417969 7.160156 8.378906 7.125 8.34375 7.089844 C 7.933594 6.6875 7.9375 6.035156 8.351562 5.625 C 8.644531 5.332031 9.078125 5.242188 9.460938 5.378906 L 10.03125 6.367188 L 8.640625 8.414062 C 8.566406 8.523438 8.59375 8.675781 8.703125 8.75 C 8.816406 8.828125 8.96875 8.796875 9.039062 8.683594 L 10.300781 6.832031 L 11.230469 8.4375 L 9.839844 10.484375 C 9.765625 10.59375 9.792969 10.746094 9.902344 10.820312 C 10.015625 10.898438 10.167969 10.867188 10.242188 10.753906 L 11.5 8.902344 L 12.699219 10.96875 C 12.761719 11.089844 12.914062 11.128906 13.027344 11.0625 C 13.144531 10.996094 13.183594 10.84375 13.113281 10.730469 L 11.917969 8.664062 L 14.152344 8.503906 C 14.464844 8.484375 14.449219 8.019531 14.132812 8.023438 C 14.128906 8.023438 14.121094 8.023438 14.117188 8.023438 L 11.652344 8.199219 L 10.71875 6.59375 L 12.953125 6.433594 C 13.265625 6.417969 13.25 5.945312 12.933594 5.953125 C 12.929688 5.953125 12.921875 5.953125 12.917969 5.953125 L 10.449219 6.128906 L 9.914062 5.199219 C 9.929688 4.945312 10.035156 4.703125 10.21875 4.519531 C 10.425781 4.316406 10.695312 4.210938 10.964844 4.210938 Z M 5.34375 6.886719 C 4.679688 6.886719 4.140625 7.425781 4.140625 8.089844 C 4.140625 8.753906 4.679688 9.296875 5.34375 9.296875 C 6.007812 9.296875 6.550781 8.753906 6.550781 8.089844 C 6.550781 7.425781 6.007812 6.886719 5.34375 6.886719 Z M 5.34375 7.367188 C 5.75 7.367188 6.070312 7.6875 6.070312 8.089844 C 6.070312 8.492188 5.75 8.816406 5.34375 8.816406 C 4.941406 8.816406 4.621094 8.492188 4.621094 8.089844 C 4.621094 7.6875 4.941406 7.367188 5.34375 7.367188 Z M 25.40625 9.214844 C 24.742188 9.214844 24.199219 9.757812 24.199219 10.421875 C 24.199219 11.082031 24.742188 11.625 25.40625 11.625 C 26.070312 11.625 26.613281 11.082031 26.613281 10.421875 C 26.613281 9.757812 26.070312 9.214844 25.40625 9.214844 Z M 25.40625 9.695312 C 25.808594 9.695312 26.128906 10.015625 26.128906 10.421875 C 26.128906 10.824219 25.808594 11.144531 25.40625 11.144531 C 25.003906 11.144531 24.683594 10.824219 24.683594 10.421875 C 24.683594 10.015625 25.003906 9.695312 25.40625 9.695312 Z M 6.777344 10.121094 C 6.746094 10.121094 6.71875 10.125 6.691406 10.128906 C 6.460938 10.167969 6.257812 10.339844 6.210938 10.59375 L 6.132812 11.007812 L 5.964844 10.65625 C 5.816406 10.347656 5.4375 10.246094 5.15625 10.410156 L 4.765625 10.632812 C 4.484375 10.796875 4.378906 11.175781 4.578125 11.460938 L 4.851562 11.851562 L 4.347656 11.671875 C 4.019531 11.558594 3.679688 11.75 3.59375 12.0625 L 3.472656 12.492188 C 3.386719 12.804688 3.589844 13.144531 3.921875 13.203125 L 4.832031 13.367188 C 4.578125 13.785156 4.535156 14.308594 4.8125 14.742188 C 4.691406 14.792969 4.578125 14.839844 4.472656 14.894531 C 4.171875 15.042969 3.929688 15.199219 3.75 15.382812 C 3.570312 15.566406 3.453125 15.785156 3.453125 16.027344 C 3.453125 16.058594 3.453125 16.085938 3.457031 16.113281 C 3.453125 16.128906 3.453125 16.144531 3.453125 16.164062 C 3.453125 18.429688 4.773438 20.464844 6.863281 21.921875 C 7.867188 22.617188 9.046875 23.183594 10.351562 23.585938 L 10.351562 25.210938 C 10.351562 25.214844 10.351562 25.222656 10.351562 25.230469 C 10.351562 25.339844 10.421875 25.433594 10.527344 25.464844 C 11.902344 25.867188 13.410156 26.089844 14.992188 26.089844 C 16.578125 26.089844 18.085938 25.867188 19.460938 25.464844 C 19.570312 25.433594 19.640625 25.332031 19.636719 25.21875 C 19.636719 25.21875 19.636719 25.214844 19.636719 25.210938 L 19.636719 23.585938 C 20.941406 23.183594 22.121094 22.617188 23.121094 21.921875 C 25.214844 20.464844 26.535156 18.429688 26.535156 16.164062 C 26.535156 16.144531 26.535156 16.128906 26.53125 16.113281 C 26.53125 16.085938 26.535156 16.058594 26.535156 16.027344 C 26.535156 15.789062 26.414062 15.566406 26.234375 15.386719 C 26.058594 15.203125 25.8125 15.042969 25.511719 14.894531 C 25.234375 14.757812 24.910156 14.632812 24.535156 14.511719 C 24.5 13.941406 24.191406 13.40625 23.699219 13.078125 C 23.738281 12.996094 23.78125 12.921875 23.804688 12.832031 C 24.066406 11.84375 23.46875 10.824219 22.476562 10.554688 C 22.3125 10.511719 22.148438 10.488281 21.984375 10.488281 C 21.5625 10.488281 21.152344 10.644531 20.820312 10.914062 C 20.699219 10.851562 20.574219 10.796875 20.441406 10.761719 C 19.523438 10.511719 18.585938 10.996094 18.242188 11.847656 C 18.128906 11.792969 18.015625 11.746094 17.894531 11.710938 C 16.902344 11.445312 15.871094 12.027344 15.613281 13.015625 C 15.574219 13.152344 15.554688 13.292969 15.550781 13.433594 C 15.367188 13.429688 15.179688 13.429688 14.992188 13.429688 C 14.210938 13.429688 13.445312 13.445312 12.703125 13.476562 C 11.964844 13.507812 11.253906 13.554688 10.574219 13.617188 C 10.234375 13.648438 9.902344 13.679688 9.578125 13.71875 C 9.460938 13.730469 9.339844 13.746094 9.222656 13.757812 L 9.058594 13.414062 L 8.667969 12.589844 C 8.453125 12.140625 8.011719 11.894531 7.546875 11.871094 C 7.511719 11.867188 7.472656 11.867188 7.4375 11.867188 L 7.75 11 C 7.863281 10.679688 7.675781 10.332031 7.359375 10.253906 L 6.925781 10.140625 C 6.875 10.128906 6.828125 10.125 6.777344 10.125 Z M 6.789062 10.605469 C 6.796875 10.605469 6.800781 10.605469 6.804688 10.605469 L 7.238281 10.714844 C 7.277344 10.726562 7.316406 10.773438 7.296875 10.832031 L 6.878906 11.984375 C 6.828125 12.007812 6.777344 12.03125 6.730469 12.0625 L 5.359375 12.851562 C 5.308594 12.878906 5.261719 12.910156 5.21875 12.945312 L 4.007812 12.726562 C 3.949219 12.714844 3.925781 12.660156 3.9375 12.621094 L 4.058594 12.191406 C 4.070312 12.152344 4.132812 12.105469 4.1875 12.125 L 5.402344 12.554688 C 5.625 12.628906 5.816406 12.378906 5.679688 12.1875 L 4.972656 11.179688 C 4.941406 11.136719 4.964844 11.074219 5.003906 11.050781 L 5.398438 10.824219 C 5.4375 10.800781 5.503906 10.8125 5.527344 10.863281 L 6.019531 11.875 C 6.121094 12.082031 6.429688 12.042969 6.472656 11.816406 L 6.683594 10.683594 C 6.695312 10.632812 6.75 10.605469 6.789062 10.605469 Z M 21.984375 10.96875 C 22.105469 10.96875 22.230469 10.984375 22.347656 11.015625 C 23.09375 11.21875 23.53125 11.972656 23.339844 12.707031 C 23.308594 12.824219 23.257812 12.941406 23.195312 13.046875 C 23.121094 13.167969 23.167969 13.324219 23.292969 13.386719 C 23.878906 13.683594 24.179688 14.347656 24.015625 14.972656 C 23.976562 15.121094 23.914062 15.257812 23.828125 15.378906 C 23.75 15.496094 23.785156 15.652344 23.90625 15.722656 C 24.175781 15.882812 24.378906 16.121094 24.492188 16.390625 C 24.519531 16.460938 24.542969 16.53125 24.5625 16.601562 C 24.578125 16.675781 24.589844 16.746094 24.59375 16.820312 C 24.601562 16.886719 24.601562 16.949219 24.597656 17.015625 C 24.132812 17.175781 23.574219 17.324219 22.933594 17.457031 C 21.882812 17.675781 20.621094 17.855469 19.214844 17.972656 L 20.023438 16.570312 L 23.179688 16.800781 C 23.3125 16.8125 23.429688 16.710938 23.4375 16.578125 C 23.449219 16.445312 23.347656 16.328125 23.214844 16.320312 L 20.289062 16.105469 L 21.847656 13.410156 C 21.945312 13.253906 21.828125 13.046875 21.644531 13.046875 C 21.554688 13.046875 21.472656 13.09375 21.429688 13.171875 L 19.875 15.863281 L 18.234375 13.445312 C 18.1875 13.378906 18.113281 13.335938 18.027344 13.335938 C 17.835938 13.339844 17.722656 13.558594 17.835938 13.71875 L 19.605469 16.328125 L 18.742188 17.828125 L 18.628906 18.019531 C 18.449219 18.03125 18.265625 18.042969 18.078125 18.054688 L 17.65625 17.425781 L 16.726562 16.058594 C 16.679688 15.988281 16.601562 15.949219 16.519531 15.949219 C 16.328125 15.953125 16.214844 16.171875 16.324219 16.328125 L 17.253906 17.699219 L 17.519531 18.085938 C 17.121094 18.105469 16.714844 18.117188 16.304688 18.128906 C 16.304688 18.074219 16.300781 18.023438 16.296875 17.972656 C 16.289062 17.839844 16.273438 17.703125 16.253906 17.566406 C 16.230469 17.429688 16.203125 17.292969 16.164062 17.160156 C 15.996094 16.523438 15.683594 15.960938 15.269531 15.5 C 15.34375 15.390625 15.433594 15.289062 15.539062 15.207031 C 15.644531 15.117188 15.765625 15.046875 15.894531 14.992188 C 16.023438 14.941406 16.164062 14.90625 16.3125 14.898438 C 16.519531 14.882812 16.613281 14.625 16.460938 14.480469 C 16.097656 14.132812 15.949219 13.617188 16.078125 13.136719 C 16.269531 12.402344 17.023438 11.972656 17.765625 12.175781 C 17.933594 12.21875 18.089844 12.296875 18.230469 12.398438 C 18.371094 12.503906 18.574219 12.425781 18.609375 12.253906 C 18.617188 12.226562 18.621094 12.203125 18.625 12.183594 C 18.820312 11.449219 19.570312 11.023438 20.316406 11.222656 C 20.453125 11.261719 20.585938 11.320312 20.710938 11.398438 C 20.804688 11.460938 20.929688 11.449219 21.011719 11.367188 C 21.269531 11.105469 21.621094 10.964844 21.984375 10.964844 Z M 7.464844 12.347656 C 7.785156 12.347656 8.09375 12.503906 8.230469 12.792969 L 8.425781 13.203125 L 6.503906 14.308594 C 6.386719 14.375 6.34375 14.523438 6.410156 14.640625 C 6.480469 14.757812 6.628906 14.796875 6.746094 14.726562 L 8.632812 13.640625 L 9.019531 14.445312 L 9.410156 15.269531 C 9.320312 15.355469 9.234375 15.445312 9.152344 15.539062 C 8.980469 15.738281 8.828125 15.949219 8.699219 16.175781 C 8.566406 16.402344 8.457031 16.640625 8.375 16.886719 C 8.289062 17.136719 8.226562 17.390625 8.191406 17.652344 C 8.1875 17.65625 8.1875 17.664062 8.1875 17.667969 C 7.914062 17.621094 7.644531 17.574219 7.390625 17.527344 C 7.386719 17.515625 7.378906 17.503906 7.371094 17.496094 L 6.871094 16.792969 C 6.875 16.789062 6.878906 16.785156 6.886719 16.785156 L 8.875 15.636719 C 9.089844 15.519531 9.007812 15.191406 8.765625 15.183594 C 8.71875 15.183594 8.671875 15.195312 8.632812 15.21875 L 6.644531 16.367188 C 6.625 16.378906 6.609375 16.390625 6.59375 16.40625 L 5.242188 14.511719 C 4.996094 14.167969 5.109375 13.675781 5.4375 13.382812 L 5.441406 13.382812 C 5.488281 13.339844 5.542969 13.300781 5.597656 13.269531 L 6.972656 12.476562 C 6.984375 12.46875 7 12.460938 7.015625 12.453125 C 7.054688 12.429688 7.101562 12.414062 7.148438 12.398438 C 7.253906 12.363281 7.359375 12.34375 7.464844 12.34375 Z M 14.992188 13.90625 C 15.1875 13.90625 15.378906 13.910156 15.574219 13.910156 C 15.582031 13.910156 15.59375 13.910156 15.605469 13.90625 C 15.65625 14.117188 15.746094 14.316406 15.863281 14.5 C 15.8125 14.511719 15.761719 14.527344 15.714844 14.546875 C 15.539062 14.617188 15.375 14.714844 15.230469 14.832031 C 15.117188 14.925781 15.011719 15.035156 14.921875 15.15625 C 14.128906 14.460938 13.078125 14.082031 11.988281 14.144531 C 11.71875 14.160156 11.445312 14.203125 11.171875 14.277344 C 10.902344 14.351562 10.644531 14.449219 10.402344 14.570312 C 10.183594 14.675781 9.980469 14.804688 9.792969 14.945312 L 9.453125 14.234375 L 9.441406 14.214844 C 9.503906 14.203125 9.570312 14.199219 9.632812 14.191406 C 9.953125 14.152344 10.28125 14.121094 10.617188 14.089844 C 11.289062 14.03125 11.992188 13.988281 12.726562 13.957031 C 13.457031 13.925781 14.214844 13.90625 14.992188 13.90625 Z M 12.195312 14.621094 C 13.796875 14.601562 15.265625 15.664062 15.699219 17.285156 C 15.730469 17.402344 15.757812 17.523438 15.777344 17.644531 C 15.796875 17.761719 15.808594 17.882812 15.816406 18 C 15.820312 18.046875 15.820312 18.09375 15.824219 18.136719 C 15.570312 18.144531 15.3125 18.144531 15.054688 18.144531 C 15.039062 16.65625 13.847656 15.425781 12.34375 15.378906 C 10.886719 15.335938 9.648438 16.417969 9.480469 17.84375 C 9.199219 17.8125 8.929688 17.773438 8.667969 17.738281 C 8.667969 17.730469 8.667969 17.726562 8.667969 17.71875 C 8.699219 17.488281 8.753906 17.261719 8.828125 17.046875 C 8.90625 16.828125 9 16.617188 9.117188 16.417969 C 9.230469 16.21875 9.363281 16.03125 9.515625 15.855469 C 9.667969 15.683594 9.835938 15.523438 10.019531 15.378906 C 10.203125 15.234375 10.402344 15.109375 10.617188 15.003906 C 10.832031 14.894531 11.058594 14.808594 11.300781 14.746094 C 11.597656 14.664062 11.898438 14.625 12.195312 14.621094 Z M 24.5 15.003906 C 24.808594 15.109375 25.078125 15.214844 25.296875 15.324219 C 25.570312 15.457031 25.769531 15.59375 25.890625 15.71875 C 26.011719 15.84375 26.050781 15.941406 26.050781 16.027344 C 26.050781 16.109375 26.011719 16.207031 25.890625 16.332031 C 25.769531 16.457031 25.570312 16.59375 25.296875 16.730469 C 25.230469 16.761719 25.15625 16.796875 25.078125 16.828125 C 25.078125 16.8125 25.078125 16.800781 25.074219 16.785156 C 25.070312 16.683594 25.054688 16.585938 25.03125 16.488281 C 25.007812 16.390625 24.976562 16.296875 24.9375 16.207031 C 24.8125 15.910156 24.605469 15.648438 24.34375 15.445312 C 24.398438 15.332031 24.449219 15.21875 24.480469 15.097656 C 24.488281 15.066406 24.496094 15.035156 24.5 15.003906 Z M 5.097656 15.144531 L 6.699219 17.382812 C 5.851562 17.1875 5.164062 16.964844 4.6875 16.730469 C 4.417969 16.59375 4.214844 16.457031 4.09375 16.332031 C 3.972656 16.207031 3.933594 16.109375 3.933594 16.027344 C 3.933594 15.941406 3.972656 15.84375 4.09375 15.71875 C 4.214844 15.59375 4.417969 15.457031 4.6875 15.324219 C 4.8125 15.265625 4.949219 15.203125 5.097656 15.144531 Z M 12.269531 15.859375 C 12.289062 15.859375 12.308594 15.859375 12.328125 15.859375 C 12.636719 15.871094 12.929688 15.941406 13.195312 16.058594 L 12.308594 17.589844 L 11.855469 15.894531 C 11.992188 15.871094 12.128906 15.859375 12.269531 15.859375 Z M 11.390625 16.027344 L 11.84375 17.714844 L 10.355469 16.851562 C 10.609375 16.484375 10.972656 16.195312 11.390625 16.027344 Z M 13.613281 16.296875 C 13.984375 16.5625 14.273438 16.9375 14.429688 17.375 L 12.730469 17.828125 Z M 3.980469 16.867188 C 4.121094 16.972656 4.285156 17.066406 4.472656 17.160156 C 5.078125 17.457031 5.917969 17.714844 6.953125 17.929688 C 9.023438 18.363281 11.859375 18.625 14.992188 18.625 C 18.128906 18.625 20.964844 18.363281 23.03125 17.929688 C 24.066406 17.714844 24.910156 17.457031 25.511719 17.160156 C 25.699219 17.066406 25.863281 16.972656 26.003906 16.867188 C 25.765625 18.667969 24.613281 20.292969 22.84375 21.523438 C 20.847656 22.914062 18.066406 23.78125 14.992188 23.78125 C 11.917969 23.78125 9.140625 22.914062 7.140625 21.523438 C 5.371094 20.292969 4.222656 18.667969 3.980469 16.867188 Z M 10.121094 17.277344 L 11.414062 18.023438 C 10.914062 17.988281 10.425781 17.945312 9.960938 17.894531 C 9.984375 17.679688 10.039062 17.46875 10.121094 17.277344 Z M 14.550781 17.839844 C 14.566406 17.941406 14.570312 18.039062 14.574219 18.144531 C 14.210938 18.140625 13.851562 18.132812 13.496094 18.121094 Z M 24.628906 18.417969 C 24.546875 18.421875 24.476562 18.464844 24.433594 18.53125 C 24.304688 18.726562 24.164062 18.917969 24.007812 19.105469 C 23.917969 19.207031 23.933594 19.363281 24.035156 19.449219 C 24.140625 19.535156 24.292969 19.519531 24.378906 19.414062 C 24.546875 19.214844 24.699219 19.007812 24.835938 18.792969 C 24.945312 18.628906 24.824219 18.410156 24.628906 18.417969 Z M 23.671875 19.578125 C 23.609375 19.578125 23.550781 19.601562 23.503906 19.644531 C 23.324219 19.820312 23.132812 19.988281 22.929688 20.152344 C 22.722656 20.3125 22.507812 20.46875 22.28125 20.613281 C 21.375 21.203125 20.300781 21.671875 19.109375 21.988281 C 18.980469 22.019531 18.902344 22.152344 18.933594 22.28125 C 18.96875 22.410156 19.101562 22.488281 19.230469 22.453125 C 20.46875 22.128906 21.59375 21.636719 22.546875 21.019531 C 22.785156 20.863281 23.011719 20.699219 23.226562 20.527344 C 23.445312 20.359375 23.648438 20.179688 23.839844 19.992188 C 24 19.839844 23.890625 19.574219 23.671875 19.578125 Z M 10.832031 23.722656 C 12.125 24.074219 13.527344 24.265625 14.992188 24.265625 C 16.460938 24.265625 17.863281 24.074219 19.152344 23.722656 L 19.152344 25.046875 C 17.871094 25.40625 16.464844 25.605469 14.992188 25.605469 C 13.519531 25.605469 12.117188 25.40625 10.832031 25.046875 Z M 10.832031 23.722656 " fill-opacity="1" fill-rule="nonzero"></path></g></svg>